<mxfile host="Electron" agent="Mozilla/5.0 (Windows NT 10.0; Win64; x64) AppleWebKit/537.36 (KHTML, like Gecko) draw.io/24.7.17 Chrome/128.0.6613.36 Electron/32.0.1 Safari/537.36" version="24.7.17">
  <diagram name="Page-1" id="WQeUhzv_VwPVyA5CQ0qr">
    <mxGraphModel dx="2390" dy="1473" grid="1" gridSize="10" guides="1" tooltips="1" connect="1" arrows="1" fold="1" page="1" pageScale="1" pageWidth="850" pageHeight="1100" math="0" shadow="0">
      <root>
        <mxCell id="0" />
        <mxCell id="1" parent="0" />
        <mxCell id="F-107009YZoa1VJT9Bub-3" style="edgeStyle=orthogonalEdgeStyle;rounded=0;orthogonalLoop=1;jettySize=auto;html=1;exitX=0.5;exitY=1;exitDx=0;exitDy=0;entryX=0.5;entryY=0;entryDx=0;entryDy=0;" edge="1" parent="1" source="yk9AvRP_01XB7RLFrfOt-1" target="F-107009YZoa1VJT9Bub-2">
          <mxGeometry relative="1" as="geometry" />
        </mxCell>
        <mxCell id="yk9AvRP_01XB7RLFrfOt-1" value="Start" style="ellipse;whiteSpace=wrap;html=1;" parent="1" vertex="1">
          <mxGeometry x="305" y="30" width="120" height="80" as="geometry" />
        </mxCell>
        <mxCell id="F-107009YZoa1VJT9Bub-5" style="edgeStyle=orthogonalEdgeStyle;rounded=0;orthogonalLoop=1;jettySize=auto;html=1;exitX=0.5;exitY=1;exitDx=0;exitDy=0;entryX=0.5;entryY=0;entryDx=0;entryDy=0;" edge="1" parent="1" source="F-107009YZoa1VJT9Bub-2" target="F-107009YZoa1VJT9Bub-4">
          <mxGeometry relative="1" as="geometry" />
        </mxCell>
        <mxCell id="F-107009YZoa1VJT9Bub-2" value="create RuleBase" style="rounded=0;whiteSpace=wrap;html=1;shadow=0;" vertex="1" parent="1">
          <mxGeometry x="305" y="130" width="120" height="60" as="geometry" />
        </mxCell>
        <mxCell id="F-107009YZoa1VJT9Bub-9" style="edgeStyle=orthogonalEdgeStyle;rounded=0;orthogonalLoop=1;jettySize=auto;html=1;exitX=0.5;exitY=1;exitDx=0;exitDy=0;entryX=0.5;entryY=0;entryDx=0;entryDy=0;" edge="1" parent="1" source="F-107009YZoa1VJT9Bub-4" target="F-107009YZoa1VJT9Bub-8">
          <mxGeometry relative="1" as="geometry" />
        </mxCell>
        <mxCell id="F-107009YZoa1VJT9Bub-4" value="create KnowledgeBase" style="rounded=0;whiteSpace=wrap;html=1;" vertex="1" parent="1">
          <mxGeometry x="305" y="210" width="120" height="60" as="geometry" />
        </mxCell>
        <mxCell id="F-107009YZoa1VJT9Bub-13" style="edgeStyle=orthogonalEdgeStyle;rounded=0;orthogonalLoop=1;jettySize=auto;html=1;exitX=0.5;exitY=1;exitDx=0;exitDy=0;entryX=0.5;entryY=0;entryDx=0;entryDy=0;" edge="1" parent="1" source="F-107009YZoa1VJT9Bub-6">
          <mxGeometry relative="1" as="geometry">
            <mxPoint x="365" y="440" as="targetPoint" />
          </mxGeometry>
        </mxCell>
        <mxCell id="F-107009YZoa1VJT9Bub-6" value="Greeting" style="shape=parallelogram;perimeter=parallelogramPerimeter;whiteSpace=wrap;html=1;fixedSize=1;" vertex="1" parent="1">
          <mxGeometry x="305" y="370" width="120" height="50" as="geometry" />
        </mxCell>
        <mxCell id="F-107009YZoa1VJT9Bub-10" style="edgeStyle=orthogonalEdgeStyle;rounded=0;orthogonalLoop=1;jettySize=auto;html=1;exitX=0.5;exitY=1;exitDx=0;exitDy=0;entryX=0.5;entryY=0;entryDx=0;entryDy=0;" edge="1" parent="1" source="F-107009YZoa1VJT9Bub-8" target="F-107009YZoa1VJT9Bub-6">
          <mxGeometry relative="1" as="geometry" />
        </mxCell>
        <mxCell id="F-107009YZoa1VJT9Bub-8" value="create FactBase" style="rounded=0;whiteSpace=wrap;html=1;" vertex="1" parent="1">
          <mxGeometry x="305" y="290" width="120" height="60" as="geometry" />
        </mxCell>
        <mxCell id="F-107009YZoa1VJT9Bub-15" style="edgeStyle=orthogonalEdgeStyle;rounded=0;orthogonalLoop=1;jettySize=auto;html=1;exitX=0.5;exitY=1;exitDx=0;exitDy=0;entryX=0.5;entryY=0;entryDx=0;entryDy=0;" edge="1" parent="1" target="F-107009YZoa1VJT9Bub-14">
          <mxGeometry relative="1" as="geometry">
            <mxPoint x="365" y="585" as="sourcePoint" />
          </mxGeometry>
        </mxCell>
        <mxCell id="F-107009YZoa1VJT9Bub-19" style="edgeStyle=orthogonalEdgeStyle;rounded=0;orthogonalLoop=1;jettySize=auto;html=1;exitX=1;exitY=0.5;exitDx=0;exitDy=0;entryX=0;entryY=0.5;entryDx=0;entryDy=0;" edge="1" parent="1" source="F-107009YZoa1VJT9Bub-14" target="F-107009YZoa1VJT9Bub-18">
          <mxGeometry relative="1" as="geometry" />
        </mxCell>
        <mxCell id="F-107009YZoa1VJT9Bub-20" style="edgeStyle=orthogonalEdgeStyle;rounded=0;orthogonalLoop=1;jettySize=auto;html=1;exitX=0.5;exitY=1;exitDx=0;exitDy=0;" edge="1" parent="1" source="F-107009YZoa1VJT9Bub-14">
          <mxGeometry relative="1" as="geometry">
            <mxPoint x="365" y="735" as="targetPoint" />
          </mxGeometry>
        </mxCell>
        <mxCell id="F-107009YZoa1VJT9Bub-14" value="Diagnosis?" style="rhombus;whiteSpace=wrap;html=1;shadow=1;strokeColor=#FF0000;" vertex="1" parent="1">
          <mxGeometry x="317.5" y="605" width="95" height="90" as="geometry" />
        </mxCell>
        <mxCell id="F-107009YZoa1VJT9Bub-16" value="Yes" style="text;html=1;align=center;verticalAlign=middle;resizable=0;points=[];autosize=1;strokeColor=none;fillColor=none;" vertex="1" parent="1">
          <mxGeometry x="325" y="695" width="40" height="30" as="geometry" />
        </mxCell>
        <mxCell id="F-107009YZoa1VJT9Bub-17" value="No" style="text;html=1;align=center;verticalAlign=middle;resizable=0;points=[];autosize=1;strokeColor=none;fillColor=none;" vertex="1" parent="1">
          <mxGeometry x="425" y="620" width="40" height="30" as="geometry" />
        </mxCell>
        <mxCell id="F-107009YZoa1VJT9Bub-18" value="End&lt;div&gt;(No Diagnosis)&lt;/div&gt;" style="ellipse;whiteSpace=wrap;html=1;" vertex="1" parent="1">
          <mxGeometry x="470" y="610" width="120" height="80" as="geometry" />
        </mxCell>
        <mxCell id="F-107009YZoa1VJT9Bub-36" style="edgeStyle=orthogonalEdgeStyle;rounded=0;orthogonalLoop=1;jettySize=auto;html=1;exitX=0.5;exitY=1;exitDx=0;exitDy=0;entryX=0.5;entryY=0;entryDx=0;entryDy=0;" edge="1" parent="1" source="F-107009YZoa1VJT9Bub-21" target="F-107009YZoa1VJT9Bub-35">
          <mxGeometry relative="1" as="geometry" />
        </mxCell>
        <mxCell id="F-107009YZoa1VJT9Bub-21" value="&lt;font color=&quot;#0000ff&quot;&gt;Get more facts to send to KnowledgeBase for a treatment recommendation&lt;/font&gt;" style="whiteSpace=wrap;html=1;strokeColor=#A680B8;" vertex="1" parent="1">
          <mxGeometry x="300" y="735" width="130" height="90" as="geometry" />
        </mxCell>
        <mxCell id="F-107009YZoa1VJT9Bub-22" value="" style="endArrow=none;html=1;rounded=0;fillColor=#A680B8;shadow=0;strokeColor=#A680B8;" edge="1" parent="1">
          <mxGeometry width="50" height="50" relative="1" as="geometry">
            <mxPoint x="560" y="140" as="sourcePoint" />
            <mxPoint x="600" y="140" as="targetPoint" />
          </mxGeometry>
        </mxCell>
        <mxCell id="F-107009YZoa1VJT9Bub-23" value="" style="endArrow=none;html=1;rounded=0;strokeColor=#FF0000;" edge="1" parent="1">
          <mxGeometry width="50" height="50" relative="1" as="geometry">
            <mxPoint x="560" y="100" as="sourcePoint" />
            <mxPoint x="600" y="100" as="targetPoint" />
          </mxGeometry>
        </mxCell>
        <mxCell id="F-107009YZoa1VJT9Bub-24" value="" style="endArrow=none;html=1;rounded=0;strokeColor=#0000FF;" edge="1" parent="1">
          <mxGeometry width="50" height="50" relative="1" as="geometry">
            <mxPoint x="560" y="60" as="sourcePoint" />
            <mxPoint x="600" y="60" as="targetPoint" />
          </mxGeometry>
        </mxCell>
        <mxCell id="F-107009YZoa1VJT9Bub-25" value="FactBase" style="text;html=1;align=center;verticalAlign=middle;resizable=0;points=[];autosize=1;strokeColor=none;fillColor=none;" vertex="1" parent="1">
          <mxGeometry x="600" y="40" width="70" height="30" as="geometry" />
        </mxCell>
        <mxCell id="F-107009YZoa1VJT9Bub-26" value="KnowledgeBase" style="text;html=1;align=center;verticalAlign=middle;resizable=0;points=[];autosize=1;strokeColor=none;fillColor=none;" vertex="1" parent="1">
          <mxGeometry x="595" y="130" width="110" height="30" as="geometry" />
        </mxCell>
        <mxCell id="F-107009YZoa1VJT9Bub-27" value="RuleBase" style="text;html=1;align=center;verticalAlign=middle;resizable=0;points=[];autosize=1;strokeColor=none;fillColor=none;" vertex="1" parent="1">
          <mxGeometry x="595" y="88" width="80" height="30" as="geometry" />
        </mxCell>
        <mxCell id="F-107009YZoa1VJT9Bub-31" style="edgeStyle=orthogonalEdgeStyle;rounded=0;orthogonalLoop=1;jettySize=auto;html=1;exitX=0.5;exitY=1;exitDx=0;exitDy=0;entryX=0.5;entryY=0;entryDx=0;entryDy=0;" edge="1" parent="1" source="F-107009YZoa1VJT9Bub-28" target="F-107009YZoa1VJT9Bub-30">
          <mxGeometry relative="1" as="geometry" />
        </mxCell>
        <mxCell id="F-107009YZoa1VJT9Bub-28" value="send symptoms to FactBase" style="shape=parallelogram;perimeter=parallelogramPerimeter;whiteSpace=wrap;html=1;fixedSize=1;" vertex="1" parent="1">
          <mxGeometry x="295" y="440" width="130" height="60" as="geometry" />
        </mxCell>
        <mxCell id="F-107009YZoa1VJT9Bub-30" value="RuleBase retrieves symptoms" style="shape=parallelogram;perimeter=parallelogramPerimeter;whiteSpace=wrap;html=1;fixedSize=1;" vertex="1" parent="1">
          <mxGeometry x="297.5" y="515" width="135" height="70" as="geometry" />
        </mxCell>
        <mxCell id="F-107009YZoa1VJT9Bub-37" style="edgeStyle=orthogonalEdgeStyle;rounded=0;orthogonalLoop=1;jettySize=auto;html=1;exitX=0.5;exitY=1;exitDx=0;exitDy=0;entryX=0.5;entryY=0;entryDx=0;entryDy=0;" edge="1" parent="1" source="F-107009YZoa1VJT9Bub-35">
          <mxGeometry relative="1" as="geometry">
            <mxPoint x="365" y="1020" as="targetPoint" />
          </mxGeometry>
        </mxCell>
        <mxCell id="F-107009YZoa1VJT9Bub-35" value="KnowledgeBase retrieves more&lt;div&gt;Facts&lt;/div&gt;" style="rhombus;whiteSpace=wrap;html=1;strokeColor=#A680B8;" vertex="1" parent="1">
          <mxGeometry x="300" y="840" width="130" height="150" as="geometry" />
        </mxCell>
        <mxCell id="F-107009YZoa1VJT9Bub-38" value="KnowledgeBase recommends treatment" style="ellipse;whiteSpace=wrap;html=1;" vertex="1" parent="1">
          <mxGeometry x="305" y="1020" width="120" height="80" as="geometry" />
        </mxCell>
        <mxCell id="F-107009YZoa1VJT9Bub-40" value="" style="endArrow=none;html=1;rounded=0;entryX=0;entryY=0.333;entryDx=0;entryDy=0;entryPerimeter=0;" edge="1" parent="1">
          <mxGeometry width="50" height="50" relative="1" as="geometry">
            <mxPoint x="560" y="20" as="sourcePoint" />
            <mxPoint x="600" y="19.99000000000001" as="targetPoint" />
          </mxGeometry>
        </mxCell>
        <mxCell id="F-107009YZoa1VJT9Bub-43" value="main" style="text;html=1;align=center;verticalAlign=middle;resizable=0;points=[];autosize=1;strokeColor=none;fillColor=none;" vertex="1" parent="1">
          <mxGeometry x="600" width="50" height="30" as="geometry" />
        </mxCell>
        <mxCell id="F-107009YZoa1VJT9Bub-44" value="backwardChaining.cpp" style="text;html=1;align=center;verticalAlign=middle;resizable=0;points=[];autosize=1;fillColor=#e3c800;fontColor=#000000;strokeColor=#B09500;" vertex="1" parent="1">
          <mxGeometry x="155" y="635" width="140" height="30" as="geometry" />
        </mxCell>
        <mxCell id="F-107009YZoa1VJT9Bub-45" value="forwardChaining.cpp" style="text;html=1;align=center;verticalAlign=middle;resizable=0;points=[];autosize=1;strokeColor=#B09500;fillColor=#e3c800;fontColor=#000000;" vertex="1" parent="1">
          <mxGeometry x="165" y="735" width="130" height="30" as="geometry" />
        </mxCell>
        <mxCell id="F-107009YZoa1VJT9Bub-46" value="main.cpp" style="text;html=1;align=center;verticalAlign=middle;resizable=0;points=[];autosize=1;fillColor=#e3c800;fontColor=#000000;strokeColor=#B09500;" vertex="1" parent="1">
          <mxGeometry x="225" y="30" width="70" height="30" as="geometry" />
        </mxCell>
        <mxCell id="F-107009YZoa1VJT9Bub-49" value="" style="endArrow=none;dashed=1;html=1;rounded=0;exitX=0.75;exitY=-0.073;exitDx=0;exitDy=0;exitPerimeter=0;" edge="1" parent="1" source="F-107009YZoa1VJT9Bub-44">
          <mxGeometry width="50" height="50" relative="1" as="geometry">
            <mxPoint x="210" y="110" as="sourcePoint" />
            <mxPoint x="260" y="60" as="targetPoint" />
          </mxGeometry>
        </mxCell>
        <mxCell id="F-107009YZoa1VJT9Bub-50" value="" style="endArrow=none;dashed=1;html=1;rounded=0;exitX=0.729;exitY=0.022;exitDx=0;exitDy=0;exitPerimeter=0;" edge="1" parent="1" source="F-107009YZoa1VJT9Bub-45">
          <mxGeometry width="50" height="50" relative="1" as="geometry">
            <mxPoint x="260" y="730" as="sourcePoint" />
            <mxPoint x="260" y="665" as="targetPoint" />
          </mxGeometry>
        </mxCell>
        <mxCell id="F-107009YZoa1VJT9Bub-52" value="main.cpp" style="text;html=1;align=center;verticalAlign=middle;resizable=0;points=[];autosize=1;strokeColor=#B09500;fillColor=#e3c800;fontColor=#000000;" vertex="1" parent="1">
          <mxGeometry x="200" y="1020" width="70" height="30" as="geometry" />
        </mxCell>
        <mxCell id="F-107009YZoa1VJT9Bub-53" value="" style="endArrow=none;dashed=1;html=1;rounded=0;exitX=0.846;exitY=-0.043;exitDx=0;exitDy=0;exitPerimeter=0;" edge="1" parent="1" source="F-107009YZoa1VJT9Bub-52">
          <mxGeometry width="50" height="50" relative="1" as="geometry">
            <mxPoint x="210" y="815" as="sourcePoint" />
            <mxPoint x="260" y="765" as="targetPoint" />
          </mxGeometry>
        </mxCell>
      </root>
    </mxGraphModel>
  </diagram>
</mxfile>
